# xmcd
#
# Track frame offsets: 
#        150
#        16292
#        29725
#        46045
#        58935
#        73100
#        86332
#        105422
#        115222
#        124055
#        136280
#        149807
#        162505
#        177062
#        196812
#        211892
#        225087
#        247252
#        259055
#        272685
#        286625
#        301370
#        315920
#        330657
#
# Disc length: 4573 seconds
#
# Revision: 4
# Processed by: cddbd v1.5.2PL0 Copyright (c) Steve Scherf et al.
# Submitted via: ExactAudioCopyFreeDBPlugin 1.0
#
DISCID=5311db18
DTITLE=Ray Charles - The Best Of
DYEAR=1994
DGENRE=Blues
TTITLE0=Your Cheating Heart
TTITLE1=You Are My Sunshine
TTITLE2=Georgia
TTITLE3=Unchain My Heart
TTITLE4=One Mint Julep
TTITLE5=Take These Chains From My Heart
TTITLE6=I Can't Stop Loving You
TTITLE7=Busted
TTITLE8=Hit The Road Jack
TTITLE9=Please Say You're Fooling
TTITLE10=Let's Go Get Stoned
TTITLE11=My Heart Cries For You
TTITLE12=Feel So Bad
TTITLE13=That Lucky Old Sun
TTITLE14=Smack Dab In The Middle
TTITLE15=Cryin' Time
TTITLE16=If It Wasn't For Bad Luck
TTITLE17=In The Heat Of The Night
TTITLE18=Eleanor Rigby
TTITLE19=Don't Change On Me
TTITLE20=Born To Lose
TTITLE21=No One
TTITLE22=Hard Hearted Hannah
TTITLE23=Yesterday
EXTD=
EXTT0=
EXTT1=
EXTT2=
EXTT3=
EXTT4=
EXTT5=
EXTT6=
EXTT7=
EXTT8=
EXTT9=
EXTT10=
EXTT11=
EXTT12=
EXTT13=
EXTT14=
EXTT15=
EXTT16=
EXTT17=
EXTT18=
EXTT19=
EXTT20=
EXTT21=
EXTT22=
EXTT23=
PLAYORDER=
